<?xml version="1.0" encoding="UTF-8"?><svg id="Layer_2" xmlns="http://www.w3.org/2000/svg" viewBox="0 0 1080 1080"><defs><style>.cls-1{fill:#fff;}.cls-2,.cls-3{fill:#000089;}.cls-3{fill-rule:evenodd;}</style></defs><g id="Layer_1-2"><rect class="cls-1" width="1080" height="1080"/><path class="cls-2" d="M736.01,506.79c9.44.4,7.53-2.21-7.13-9.74-11.35-5.93-12.25-6.53-12.25-9.24,0-3.61-2.01-5.22-14.97-11.55-10.04-4.92-10.15-5.02-10.15-8.54,0-10.04-8.33-17.27-21.29-18.58-3.92-.3-7.23-.5-7.43-.2-.2.2,1.61,2.41,4.12,4.92,6.83,6.93,5.93,8.13-2.71,3.91-6.03-3.02-8.54-3.71-14.96-4.02-8.04-.3-16.78,1.51-21.9,4.62-6.52,4.02-10.14,6.63-10.14,7.43,0,.5,2.51.9,5.62.9,8.94,0,12.85,3.21,5.32,4.42-7.33,1.2-16.57,6.13-21.99,11.75-4.92,5.12-15.17,23.2-13.87,24.5.3.4,2.42-.3,4.63-1.41,2.21-1.1,6.02-2.31,8.43-2.71l4.32-.7-5.63,6.03c-6.53,6.83-10.05,13.16-12.25,22.4-2.11,8.33-3.41,24.1-2.01,24.1s5.83-3.42,11.76-8.94l4.82-4.62-.8,4.02c-.5,2.21-.9,8.54-.9,14.06,0,9.24.3,10.54,3.32,16.97,5.02,10.55,4.11,14.06-1.71,6.72-4.32-5.42-7.23-12.25-7.83-18.78-.3-3.02-1.01-5.43-1.51-5.43s-4.12,2.01-8.04,4.52c-7.74,5.12-7.64,4.52-1.41,11.25,1.61,1.8,2.62,3.61,2.21,4.01-.95,1.03-7.63-2.6-13.57-7.04-7.29,14.46-22,24.74-38.88,25.57-.56.33-1.11.66-1.67.98-3.66,3.29-10.68,8.78-20.2,15.74-37.76,27.41-42.78,31.64-51.92,43.18-6.93,8.64-13.96,22.5-17.57,34.34-1.31,4.72-3.83,16.18-5.43,25.62-4.72,27.32-9.04,37.26-19.18,43.68-13.96,9.04-30.03,2.21-34.55-14.56-3.92-14.36.2-32.65,14.66-64.58,18.58-40.98,20.59-63.77,6.83-77.43-14.96-14.76-44.39-7.73-52.13,12.56-1.91,5.22-2.21,7.63-2.11,20.69.1,12.75-.2,15.46-2.01,20.39-1.1,3.11-1.91,5.83-1.7,6.03.2.2,2.41-.5,4.82-1.6,8.64-3.92,14.06-11.35,14.06-19.49,0-2.51.4-4.51.9-4.51,1.61,0,2.41,4.12,2.41,11.25-.1,6.33,0,6.73,1.71,5.83,3.11-1.71,6.02-6.13,7.63-11.75,1.41-4.92,1.41-6.13,0-13.26-2.41-11.75-2.21-14.77,1.41-18.38,2.81-2.71,3.61-3.01,7.63-2.51,12.86,1.41,16.97,17.88,9.94,39.87-1.5,4.62-6.23,16.57-10.55,26.62-14.16,33.14-16.87,41.78-17.78,57.74-1.1,20.9,6.13,35.46,21.09,42.59,19.89,9.34,43.79-.2,56.65-22.5,2.61-4.61,5.62-12.45,8.84-23.4,1.4-4.82,2.91-8.73,3.31-8.73s1.71,1.51,2.91,3.41c1.21,1.91,4.52,4.92,7.33,6.73,4.92,3.21,5.12,3.51,4.52,6.73-1.21,6.33-5.42,14.26-11.55,21.89-7.23,9.04-7.94,12.75-3.11,17.58l2.91,2.91h22.59c12.36,0,37.46.3,55.73.7l33.35.6v-3.01c0-7.63-5.93-17.08-12.56-19.89-2.31-1-9.13-1.31-25.1-1.31-21.39,0-29.63-.61-29.63-2.21,0-.4,3.72-3.72,8.33-7.33,26.42-21.09,42.28-47.7,40.68-68.49-.7-7.63-3.41-13.16-9.34-18.38-6.52-5.72-13.66-7.44-29.42-7.03-6.73.2-12.25,0-12.25-.3,0-1.2,10.54-4.92,16.87-5.93,7.43-1.2,16.17,0,23,3.21,8.74,4.12,16.67,14.77,17.98,24l.6,4.42,9.24.1c7.03,0,11.35.71,18.48,2.82,5.22,1.51,9.64,2.52,9.94,2.2.3-.19-.19-2.6-1.1-5.22-.91-2.61-1.6-5.42-1.6-6.12s2.51-4.93,5.52-9.34c3.02-4.42,6.03-9.84,6.63-12.05,1.4-4.82,2.91-4.32,2.91.9,0,4.82-2.01,10.75-5.52,16.07-3.12,4.62-3.01,6.93.4,16.37,1.91,5.22,2,6.53,1,12.75-1.4,8.64-.9,10.54,2.51,9.04,1.31-.6,3.02-2.21,3.72-3.52,1.61-3.02,2.51-3.02,3.32-.2,1.81,6.83-.61,12.85-5.03,12.85-2.21,0-2.41.2-1.3,2.21,2.21,4.32,5.22,6.83,8.13,6.83,1.51,0,2.81-.5,2.81-1.01,0-.6.71-1,1.6-1,1.21,0,1.41,1,1.21,4.72q-.3,4.82-4.02,5.13c-2.11.19-3.82.6-3.82,1,0,1.9,6.42,8.23,9.44,9.23,3.01.91,3.51,1.71,4.92,6.83.9,3.11,1.91,7.93,2.21,10.75,1.51,12.15,2.61,15.47,5.52,17.57,2.61,1.91,4.32,2.01,25,2.01h22.19v-2.31c0-4.42-2.01-9.44-5.02-12.25-3.32-3.11-3.22-4.62.3-3.81,5.22,1.3,9.74,8.14,9.74,14.86,0,3.42.1,3.52,4.12,3.52h4.12l-.4-6.03c-.3-4.62-1.2-7.03-3.91-11.05-4.42-6.62-8.94-9.04-17.07-9.04s-12.05-2-14.67-6.83c-2.51-4.52-5.52-20.89-7.93-43.18-2.01-18.88-1.4-25.81,3.22-34.95,3.21-6.33,4.91-7.02,4.02-1.71-1.31,8.03-1.91,17.38-1.01,17.38.5,0,4.32-2.92,8.54-6.43,13.95-11.85,25.1-28.02,28.01-40.77,2.01-8.84,1.91-8.54,3.52-6.43.8,1,2.21,4.32,3.11,7.13.8,2.91,1.91,5.32,2.31,5.32s2.01-2.51,3.52-5.62c5.32-10.45,4.52-22.5-2.51-35.46q-4.22-7.94,4.92-3.92c2.41,1.1,4.62,1.71,4.92,1.41.3-.2.2-2.31-.21-4.62-.9-5.62-6.83-12.75-18.47-22.09-10.35-8.43-15.17-14.66-15.17-19.68,0-1.81.41-3.52.91-3.82.41-.3,3.92.3,7.74,1.41,7.03,1.91,12.45,6.13,12.45,9.54,0,2.31,2.32,1.81,6.84-1.51,5.72-4.12,7.63-8.14,7.33-15.47-.1-3.22-.4-6.33-.7-6.73-.21-.4-2.11.3-4.12,1.61-2.01,1.41-4.12,2.51-4.72,2.51-1.61,0-11.96-4.02-13.36-5.23-2.31-1.91-1.41-5.73,2.11-9.64,3.22-3.41,3.82-3.71,8.54-3.51,7.24.3,11.15,2.61,11.15,6.33s2.21,3.92,4.02.4c.8-1.4,2.71-3.21,4.21-4.02,1.61-.9,3.82-3.51,5.12-6.03l2.21-4.62-3.82-3.41c-5.42-5.02-5.23-5.73,1.61-5.52ZM663,471.84c3.12,1.91,7.03,6.73,6.13,7.53-.2.2-2.92-.7-6.02-2.11-3.82-1.81-6.43-2.41-8.14-1.91-5.93,1.51-7.33,8.84-3.01,16.17,1.41,2.51,2.41,4.72,2.11,4.92-.7.71-6.93-4.02-9.14-6.93-1.51-2.01-2.11-4.32-2.01-7.53.1-11.15,10.24-16.27,20.09-10.14ZM646.13,515.23c-8.13,7.73-13.86,20.49-13.86,30.43,0,2.41-.41,4.52-.91,4.92-1.51.9-3.52-6.63-3.52-13.06.1-10.45,5.43-19.28,14.87-24.61,8.34-4.82,9.74-3.82,3.41,2.31ZM618.11,525.37c-.5-.3-.9-3.12-.9-6.23,0-11.95,9.54-24.21,18.98-24.31h3.42l-4.62,3.62c-5.93,4.62-11.05,12.35-13.86,20.79-1.21,3.72-2.61,6.43-3.01,6.13ZM636.18,610.83c-9.94-5.22-15.36-14.56-15.46-26.61,0-7.03,2.51-17.07,4.32-17.07.4,0,.7,4.22.8,9.34.1,11.15,2.41,17.88,9.04,26.72,2.41,3.21,4.42,6.63,4.42,7.53,0,1.51-.2,1.51-3.12.1ZM643.22,563.63c-2.72-6.23-2.31-15.87,1.1-22.6,2.2-4.42,9.84-12.66,10.75-11.65.3.2-1.01,3.41-2.82,7.13-4.12,8.43-4.92,17.57-2.51,29.63,1.01,4.52,1.51,8.44,1.31,8.74-.8.7-5.53-6.03-7.83-11.25ZM655.36,624.7c-7.33-7.84-9.64-14.06-8.74-24.61.5-6.43,1.71-10.44,2.31-8.34.2.6,1.01,4.22,1.81,8.24.8,4.02,3.51,11.55,6.02,16.77,2.51,5.32,4.62,10.64,4.62,11.85-.1,2.01-.9,1.41-6.03-3.92ZM665.51,587.84c-4.02-5.92-5.52-11.15-5.52-19.28.1-5.42.6-8.23,2.51-12.05l2.41-4.92.6,11.05c.4,8.74,1.11,12.35,3.21,17.37,1.41,3.51,4.02,8.64,5.73,11.45,1.71,2.81,2.91,5.32,2.62,5.62-1.01,1-8.85-5.22-11.55-9.24ZM675.15,639.56c-3.01,6.23-7.43,11.65-8.44,10.55-.4-.4.1-3.72,1.11-7.43,1.01-3.72,2.51-8.94,3.22-11.75.8-2.71,1.4-8.24,1.4-12.25s.4-7.34.9-7.34,1.71,2.21,2.61,5.02c2.61,8.04,2.3,16.87-.81,23.2ZM694.63,589.44c1.2,2.31,2.41,6.73,2.61,9.94.61,6.43-.4,16.97-1.6,16.97-.5,0-1.11-2.51-1.51-5.52-.91-7.73-4.02-16.47-9.74-27.21-2.71-5.02-4.93-9.84-4.93-10.54.1-2.11,12.66,11.55,15.17,16.37Z"/><path class="cls-2" d="M698.75,663.26c-4.22,7.03-12.15,15.37-20.88,21.99l-7.64,5.83,2.91,2.01c1.51,1.1,5.12,4.21,7.94,6.83,2.81,2.72,5.42,4.82,5.82,4.82s.6-2.01.5-4.52c-.2-2.51-.1-4.52.1-4.61,1.91-.31,4.22,1.9,5.93,5.62,3.61,7.63,10.74,12.65,9.54,6.73-1.61-7.94,0-8.23,4.92-.9,3.41,5.22,7.63,8.93,7.83,7.03.1-.4,0-2.31-.1-4.12-.1-1.7.2-3.21.6-3.21s4.01,1.81,8.13,4.02l7.34,4.01,19.28-.19,19.38-.3.3-2.51c.61-4.02-1.6-9.75-4.82-12.46-3.62-3.01-3.72-3.61-.5-3.61,1.41,0,3.81,1.21,5.52,2.71,2.51,2.31,3.32,4.02,4.22,9.64q1.11,6.84,4.22,6.54c2.91-.3,3.11-.61,3.42-4.72.4-5.73-4.52-16.07-9.44-19.79-3.82-3.01-8.03-3.31-18.58-1.41-10.04,1.81-12.05,1.01-29.93-12.36-5.23-3.91-12.35-9.43-15.77-12.45-3.51-2.91-6.53-5.33-6.83-5.33-.2,0-1.71,2.11-3.41,4.72Z"/><path class="cls-2" d="M568.59,687.57c-1.3.5-2.41,2.91-3.82,8.23-4.12,16.07-13.26,31.03-27.92,45.6-4.92,4.92-9.04,9.34-9.04,9.84,0,.4,8.03.71,17.87.6,12.16-.1,18.68.21,20.79,1,7.54,3.11,13.46,10.14,15.77,18.58.7,2.51,1.81,4.72,2.62,4.83.8.2,8.63.2,17.38,0,15.87-.3,15.97-.3,15.97-2.62,0-7.33-7.34-18.68-13.36-20.49-1.71-.61-8.24-1.31-14.36-1.61-7.73-.4-12.96-1.2-16.77-2.61-8.63-3.21-8.84-4.02-2.71-10.24,7.23-7.23,14.46-17.07,17.77-23.8,3.21-6.53,3.71-16.27,1.11-22.29-1.31-3.02-2.32-3.82-6.13-4.82-5.12-1.2-12.25-1.41-15.16-.2Z"/><path class="cls-3" d="M307.15,305.93c-.02-.93.6-.91,1.25-.85,87.63,22.66,166.49,63.75,212.83,120.13-68.94-10.06-128.62,2.37-182.83,18.22,31.26-50.8,11.44-114.35-31.25-137.5Z"/><path class="cls-3" d="M522.16,437.34c-39.25,31.34-78.26,63.01-104.39,113.68-5.13-47.59-25.92-84.57-74.94-102.4,49.87-18.37,107.98-24.58,179.32-11.29Z"/><path class="cls-3" d="M588.52,578.44c-37.83-18.17-59.57-62.05-46.22-110.07,4.54-16.34,12.12-34.09,29.45-34.57,1.8,5.07-2.02,11.81-4.06,15.53,21.88-7,8.53-43.15-14.94-35.47,3.52,2.78,10.22,3.41,12.82,6.81-2.86,3.85-8.77,3.21-12.09,6.38-51.82-50.89-114.77-94.23-202.99-120.41l-41.94-8.04c-1.91,2.11-7.37-1.01-10.68-.96l-.6,3.14c112.77,20.8,193.62,71.13,249.37,133.65-32.02,52.27-22.83,124.69,17.96,150.17-45.6-17.76-56.97-75.18-37.3-134.31-44.66,22.46-79.19,59.85-107.38,106.59,47.7-6.63,88.77,22.04,99.26,54.89,15.17-1.14,36.15,4.12,47.07,11.9,3.85-17.03,11.66-32.37,22.28-45.22Z"/><path class="cls-3" d="M582.79,557.3s-36.21-33.06-19.42-95c0,0-33.59,64.03,19.42,95Z"/></g></svg>